<svg width="1200" height="675" viewBox="0 0 1200 675" fill="none" xmlns="http://www.w3.org/2000/svg" role="img" aria-labelledby="title desc">
  <title id="title">Jarrell storefront illustration</title>
  <desc id="desc">A warm editorial illustration of local storefronts and neighborhood activity.</desc>
  <rect width="1200" height="675" rx="36" fill="#F8F0E3"/>
  <rect y="430" width="1200" height="245" fill="#E7D2B2"/>
  <path d="M100 430H360V235H100V430Z" fill="#FFF8EE" stroke="#8C4B2D" stroke-width="8"/>
  <path d="M100 235H360V170H100V235Z" fill="#B46C44" stroke="#8C4B2D" stroke-width="8"/>
  <rect x="145" y="300" width="70" height="130" fill="#A06B41"/>
  <rect x="235" y="300" width="85" height="78" fill="#B7D2D9"/>
  <path d="M500 430H780V190H500V430Z" fill="#FFFDF9" stroke="#0F4C5C" stroke-width="8"/>
  <path d="M500 190H780V130H500V190Z" fill="#0F4C5C" stroke="#0F4C5C" stroke-width="8"/>
  <rect x="560" y="270" width="70" height="160" fill="#8E7A3C"/>
  <rect x="650" y="270" width="90" height="90" fill="#D7E6EA"/>
  <path d="M860 430H1090V225H860V430Z" fill="#FFF6EA" stroke="#8C4B2D" stroke-width="8"/>
  <path d="M860 225H1090V160H860V225Z" fill="#8E7A3C" stroke="#8C4B2D" stroke-width="8"/>
  <rect x="910" y="295" width="66" height="135" fill="#A06B41"/>
  <rect x="990" y="295" width="70" height="76" fill="#B7D2D9"/>
  <circle cx="210" cy="570" r="54" fill="#4D6C52"/>
  <circle cx="210" cy="570" r="24" fill="#E5D9C6" stroke="#8C4B2D" stroke-width="6"/>
  <rect x="300" y="545" width="190" height="50" rx="25" fill="#8C4B2D"/>
  <circle cx="870" cy="562" r="60" fill="#8E7A3C"/>
  <rect x="930" y="534" width="180" height="54" rx="27" fill="#0F4C5C"/>
  <path d="M116 90H1084" stroke="#D6C2A3" stroke-width="6" stroke-linecap="round"/>
  <path d="M152 108H450" stroke="#D6C2A3" stroke-width="6" stroke-linecap="round"/>
  <path d="M726 96H1040" stroke="#D6C2A3" stroke-width="6" stroke-linecap="round"/>
</svg>
