<svg width="1200" height="780" viewBox="0 0 1200 780" fill="none" xmlns="http://www.w3.org/2000/svg" role="img" aria-labelledby="title desc">
  <title id="title">Jarrell business district illustration</title>
  <desc id="desc">Warm small-town storefronts, service vehicles, and trees representing local businesses in Jarrell, Texas.</desc>
  <rect width="1200" height="780" fill="#F7F1E6"/>
  <rect y="500" width="1200" height="280" fill="#EFE1C8"/>
  <path d="M0 560C120 520 180 620 280 590C380 560 460 500 560 540C660 580 760 620 860 590C980 550 1040 500 1200 560V780H0V560Z" fill="#D9C1A0"/>
  <circle cx="955" cy="150" r="72" fill="#F0DCAA"/>
  <path d="M170 490H295V388H170V490Z" fill="#F6E9D6" stroke="#8C4B2D" stroke-width="6"/>
  <path d="M170 388H295V336H170V388Z" fill="#C77C4D" stroke="#8C4B2D" stroke-width="6"/>
  <rect x="198" y="420" width="44" height="70" fill="#9E6C43"/>
  <rect x="250" y="420" width="28" height="36" fill="#B7D2D9"/>
  <path d="M415 518H565V388H415V518Z" fill="#FBF7F0" stroke="#0F4C5C" stroke-width="6"/>
  <path d="M415 388H565V336H415V388Z" fill="#0F4C5C" stroke="#0F4C5C" stroke-width="6"/>
  <rect x="458" y="431" width="52" height="87" fill="#9E6C43"/>
  <rect x="518" y="430" width="36" height="42" fill="#D8E8EC"/>
  <path d="M705 504H865V382H705V504Z" fill="#FFF8EE" stroke="#8E7A3C" stroke-width="6"/>
  <path d="M705 382H865V340H705V382Z" fill="#8E7A3C" stroke="#8E7A3C" stroke-width="6"/>
  <rect x="757" y="422" width="44" height="82" fill="#A06B41"/>
  <rect x="812" y="424" width="38" height="44" fill="#B7D2D9"/>
  <path d="M900 530H1050V402H900V530Z" fill="#F9EFE0" stroke="#8C4B2D" stroke-width="6"/>
  <path d="M900 402H1050V350H900V402Z" fill="#B46C44" stroke="#8C4B2D" stroke-width="6"/>
  <rect x="948" y="450" width="48" height="80" fill="#9E6C43"/>
  <rect x="1010" y="448" width="38" height="42" fill="#B7D2D9"/>
  <circle cx="250" cy="620" r="44" fill="#4D6C52"/>
  <circle cx="268" cy="620" r="16" fill="#E5D9C6" stroke="#8C4B2D" stroke-width="4"/>
  <rect x="300" y="586" width="120" height="44" rx="20" fill="#8C4B2D"/>
  <rect x="320" y="560" width="70" height="28" rx="14" fill="#DDE8EA"/>
  <circle cx="392" cy="622" r="18" fill="#E5D9C6" stroke="#8C4B2D" stroke-width="4"/>
  <path d="M334 580C320 560 300 548 288 530" stroke="#B46C44" stroke-width="10" stroke-linecap="round"/>
  <path d="M254 548C240 520 230 500 210 480" stroke="#4D6C52" stroke-width="12" stroke-linecap="round"/>
  <circle cx="140" cy="630" r="20" fill="#5C6A76" opacity="0.4"/>
  <circle cx="1010" cy="620" r="20" fill="#5C6A76" opacity="0.4"/>
  <path d="M88 584C130 565 164 555 198 558" stroke="#8E7A3C" stroke-width="12" stroke-linecap="round"/>
  <path d="M88 584C110 596 132 608 156 620" stroke="#8E7A3C" stroke-width="12" stroke-linecap="round"/>
  <path d="M1050 575C1090 554 1130 542 1172 546" stroke="#8E7A3C" stroke-width="12" stroke-linecap="round"/>
  <path d="M1050 575C1078 593 1110 608 1142 621" stroke="#8E7A3C" stroke-width="12" stroke-linecap="round"/>
  <path d="M540 238C490 188 472 138 482 90" stroke="#4D6C52" stroke-width="12" stroke-linecap="round"/>
  <path d="M530 240C570 202 602 174 634 154" stroke="#4D6C52" stroke-width="12" stroke-linecap="round"/>
  <circle cx="560" cy="130" r="28" fill="#6E9A66"/>
  <circle cx="640" cy="160" r="26" fill="#6E9A66"/>
  <circle cx="480" cy="100" r="24" fill="#6E9A66"/>
</svg>
